<svg id="logo-nctc" xmlns="http://www.w3.org/2000/svg" width="80" height="40" viewBox="0 0 80 40">
  <path id="Path_3" data-name="Path 3" d="M7.406,3.453,18.453,20.187V3.3a3.734,3.734,0,0,1,.7-2.453A2.358,2.358,0,0,1,21.062,0,2.481,2.481,0,0,1,23,.828,3.668,3.668,0,0,1,23.734,3.3V25.641c0,2.5-1.031,3.734-3.094,3.734a4.229,4.229,0,0,1-1.375-.219,3.339,3.339,0,0,1-1.156-.7,8.176,8.176,0,0,1-1.031-1.141l-.922-1.344L5.375,9.422V26.062a3.5,3.5,0,0,1-.766,2.453,2.5,2.5,0,0,1-1.922.844A2.443,2.443,0,0,1,.75,28.516,3.5,3.5,0,0,1,0,26.078V4.172A6.1,6.1,0,0,1,.328,1.953,2.892,2.892,0,0,1,1.516.562,3.318,3.318,0,0,1,3.359,0,3.394,3.394,0,0,1,4.672.234a2.971,2.971,0,0,1,.969.687,6.635,6.635,0,0,1,.844,1.109ZM53.75,19.922a7.6,7.6,0,0,1-.656,2.922A10.519,10.519,0,0,1,51,25.937a10.786,10.786,0,0,1-3.687,2.484,11.987,11.987,0,0,1-2.391.7,14.667,14.667,0,0,1-2.8.25,18.215,18.215,0,0,1-4.094-.422,13.533,13.533,0,0,1-1.75-.516,9.057,9.057,0,0,1-1.609-.8,11.752,11.752,0,0,1-2.75-2.391A14.605,14.605,0,0,1,30.031,22.3a16.305,16.305,0,0,1-1.219-3.578c-.125-.625-.219-1.25-.3-1.906-.062-.641-.094-1.344-.094-2.094a17.926,17.926,0,0,1,.984-6.125A12.888,12.888,0,0,1,32.25,3.969,12.988,12.988,0,0,1,36.641,1,14.217,14.217,0,0,1,39.219.25,14.062,14.062,0,0,1,41.969,0a13.258,13.258,0,0,1,6.141,1.375,11.042,11.042,0,0,1,4.125,3.406,6.725,6.725,0,0,1,1.438,3.828,2.523,2.523,0,0,1-.7,1.75,2.232,2.232,0,0,1-1.687.75,2.461,2.461,0,0,1-1.672-.516,8.654,8.654,0,0,1-1.219-1.8A8.663,8.663,0,0,0,45.75,5.641,6.432,6.432,0,0,0,42,4.578a6.764,6.764,0,0,0-5.641,2.687c-1.406,1.8-2.094,4.344-2.094,7.656a14.332,14.332,0,0,0,.922,5.5A7.008,7.008,0,0,0,37.828,23.7,7.193,7.193,0,0,0,41.812,24.8a7,7,0,0,0,4.172-1.219,7.534,7.534,0,0,0,2.609-3.641,5.552,5.552,0,0,1,.906-1.828,2.1,2.1,0,0,1,1.75-.7,2.456,2.456,0,0,1,2.5,2.516ZM76.984,4.828H70.562V25.812A3.815,3.815,0,0,1,69.75,28.5a2.961,2.961,0,0,1-4.219-.016,3.826,3.826,0,0,1-.828-2.672V4.828H58.281a3.272,3.272,0,0,1-2.219-.656,2.2,2.2,0,0,1-.75-1.75A2.167,2.167,0,0,1,56.078.641,3.4,3.4,0,0,1,58.281,0h18.7A3.325,3.325,0,0,1,79.25.656,2.235,2.235,0,0,1,80,2.422a2.237,2.237,0,0,1-.75,1.734A3.3,3.3,0,0,1,76.984,4.828Z" transform="translate(0 0)" fill="#00adee"/>
  <path id="Path_4" data-name="Path 4" d="M6.477,212.962a1.972,1.972,0,0,1-.172.745,2.68,2.68,0,0,1-.547.792,2.838,2.838,0,0,1-.953.637,2.448,2.448,0,0,1-.625.171,3.64,3.64,0,0,1-.719.062A4.467,4.467,0,0,1,2.4,215.26a2.191,2.191,0,0,1-.453-.14,2.606,2.606,0,0,1-.422-.2,3.63,3.63,0,0,1-.719-.606,3.811,3.811,0,0,1-.8-1.646,4.428,4.428,0,0,1-.078-.481c-.016-.171-.031-.342-.031-.528A4.38,4.38,0,0,1,.15,210.1a3.367,3.367,0,0,1,.734-1.18,3.409,3.409,0,0,1,1.14-.761,3.312,3.312,0,0,1,.672-.186,3.539,3.539,0,0,1,.719-.062,3.748,3.748,0,0,1,1.593.342,2.735,2.735,0,0,1,1.062.87,1.676,1.676,0,0,1,.375.978.586.586,0,0,1-.187.435.593.593,0,0,1-.437.186.642.642,0,0,1-.437-.14,2.011,2.011,0,0,1-.312-.45,2.05,2.05,0,0,0-.687-.792,1.768,1.768,0,0,0-.969-.264,1.819,1.819,0,0,0-1.468.683A3.059,3.059,0,0,0,1.4,211.7a3.63,3.63,0,0,0,.234,1.4,1.767,1.767,0,0,0,.687.839,1.9,1.9,0,0,0,1.031.28,1.875,1.875,0,0,0,1.078-.311,1.887,1.887,0,0,0,.672-.916,1.629,1.629,0,0,1,.234-.466.537.537,0,0,1,.453-.186.628.628,0,0,1,.453.186A.483.483,0,0,1,6.477,212.962Zm4.671-5.047a3.444,3.444,0,0,1,1.781.45,2.763,2.763,0,0,1,1.125,1.289,4.538,4.538,0,0,1,.391,1.972,5.269,5.269,0,0,1-.219,1.522,3.894,3.894,0,0,1-.266.637,3.075,3.075,0,0,1-.375.543,2.825,2.825,0,0,1-1.031.776,3.6,3.6,0,0,1-1.406.264,3.715,3.715,0,0,1-1.406-.264,2.825,2.825,0,0,1-1.031-.776,3.262,3.262,0,0,1-.64-1.2,5.015,5.015,0,0,1-.156-.73,6.768,6.768,0,0,1-.062-.776,5.162,5.162,0,0,1,.219-1.506,3.262,3.262,0,0,1,.64-1.2,2.748,2.748,0,0,1,1.031-.745A3.775,3.775,0,0,1,11.148,207.916Zm1.921,3.711a3.628,3.628,0,0,0-.234-1.366,1.9,1.9,0,0,0-.687-.885,1.616,1.616,0,0,0-.469-.217,2,2,0,0,0-.531-.078,1.661,1.661,0,0,0-.75.155,1.728,1.728,0,0,0-.594.481,2.6,2.6,0,0,0-.391.807,4.2,4.2,0,0,0-.109.512,3.449,3.449,0,0,0-.031.575,4.215,4.215,0,0,0,.141,1.118,2.479,2.479,0,0,0,.172.45,2.445,2.445,0,0,0,.234.373,1.643,1.643,0,0,0,.609.481,1.816,1.816,0,0,0,1.7-.124,1.852,1.852,0,0,0,.7-.854A4.074,4.074,0,0,0,13.069,211.627Zm5.015.481h-.516v2.36a.943.943,0,0,1-.2.683.72.72,0,0,1-.531.217.667.667,0,0,1-.547-.233,1.049,1.049,0,0,1-.2-.683v-5.637a.786.786,0,0,1,.906-.916H19.4a6.541,6.541,0,0,1,.844.047,2.573,2.573,0,0,1,.64.171,1.813,1.813,0,0,1,.609.4,1.786,1.786,0,0,1,.406.637,2.119,2.119,0,0,1,.141.761,1.867,1.867,0,0,1-.453,1.3,2.72,2.72,0,0,1-1.406.7,2.5,2.5,0,0,1,.75.621,6.281,6.281,0,0,1,.641.87,5.46,5.46,0,0,1,.437.839,1.522,1.522,0,0,1,.156.512.5.5,0,0,1-.094.279.567.567,0,0,1-.25.217.746.746,0,0,1-.375.093.692.692,0,0,1-.406-.109,1.07,1.07,0,0,1-.3-.3l-.328-.528-.594-.994a5.662,5.662,0,0,0-.562-.823,1.407,1.407,0,0,0-.516-.388A1.609,1.609,0,0,0,18.084,212.108Zm.859-3.075H17.568v2.019H18.9a3.553,3.553,0,0,0,.89-.093,1.156,1.156,0,0,0,.562-.311.952.952,0,0,0,.187-.621.878.878,0,0,0-.156-.528.917.917,0,0,0-.422-.342A2.524,2.524,0,0,0,18.943,209.034Zm7.9,3.354H25.473v2.081a.954.954,0,0,1-.219.668.678.678,0,0,1-.531.233.711.711,0,0,1-.547-.233.951.951,0,0,1-.2-.668v-5.652a.96.96,0,0,1,.219-.7,1.043,1.043,0,0,1,.719-.217h1.921a5.654,5.654,0,0,1,1.312.124,1.817,1.817,0,0,1,.781.419,1.8,1.8,0,0,1,.5.714,3.116,3.116,0,0,1,.125.45,2.555,2.555,0,0,1,.047.5,2.065,2.065,0,0,1-.7,1.693A3.006,3.006,0,0,1,26.848,212.388Zm-.375-3.354h-1v2.236h1a2.9,2.9,0,0,0,.89-.109.953.953,0,0,0,.531-.357,1.076,1.076,0,0,0,.187-.652,1.111,1.111,0,0,0-.3-.792A1.854,1.854,0,0,0,26.473,209.034Zm7.873-1.118a3.621,3.621,0,0,1,1.828.45,2.825,2.825,0,0,1,1.156,1.289,4.538,4.538,0,0,1,.391,1.972,5.269,5.269,0,0,1-.219,1.522,3.894,3.894,0,0,1-.266.637,4.215,4.215,0,0,1-.375.543,2.809,2.809,0,0,1-1.062.776,3.762,3.762,0,0,1-1.437.264,3.82,3.82,0,0,1-1.437-.264,2.809,2.809,0,0,1-1.062-.776,3.536,3.536,0,0,1-.656-1.2,5.014,5.014,0,0,1-.156-.73,6.768,6.768,0,0,1-.062-.776,5.162,5.162,0,0,1,.219-1.506,3.536,3.536,0,0,1,.656-1.2,2.8,2.8,0,0,1,1.047-.745A3.88,3.88,0,0,1,34.346,207.916Zm1.968,3.711a3.628,3.628,0,0,0-.234-1.366,1.831,1.831,0,0,0-.7-.885,1.709,1.709,0,0,0-.484-.217,2.113,2.113,0,0,0-.547-.078,1.776,1.776,0,0,0-.765.155,1.643,1.643,0,0,0-.609.481,2.6,2.6,0,0,0-.406.807,4.2,4.2,0,0,0-.109.512,3.423,3.423,0,0,0-.047.575,4.215,4.215,0,0,0,.141,1.118,2.478,2.478,0,0,0,.172.45,2.445,2.445,0,0,0,.234.373,1.692,1.692,0,0,0,.625.481,1.776,1.776,0,0,0,.765.155,1.8,1.8,0,0,0,.969-.28,1.978,1.978,0,0,0,.719-.854A3.19,3.19,0,0,0,36.315,211.627Zm4.968.481h-.516v2.36a.943.943,0,0,1-.2.683.72.72,0,0,1-.531.217.667.667,0,0,1-.547-.233,1.049,1.049,0,0,1-.2-.683v-5.637a.786.786,0,0,1,.906-.916h2.406a6.98,6.98,0,0,1,.859.047,2.573,2.573,0,0,1,.641.171,1.813,1.813,0,0,1,.609.4,1.786,1.786,0,0,1,.406.637,2.119,2.119,0,0,1,.141.761,1.867,1.867,0,0,1-.453,1.3,2.72,2.72,0,0,1-1.406.7,2.5,2.5,0,0,1,.75.621,6.282,6.282,0,0,1,.64.87,5.459,5.459,0,0,1,.437.839,1.522,1.522,0,0,1,.156.512.5.5,0,0,1-.094.279.567.567,0,0,1-.25.217.746.746,0,0,1-.375.093.691.691,0,0,1-.406-.109,1.07,1.07,0,0,1-.3-.3l-.328-.528-.594-.994a5.661,5.661,0,0,0-.562-.823,1.407,1.407,0,0,0-.516-.388A1.74,1.74,0,0,0,41.282,212.108Zm.859-3.075H40.767v2.019h1.328a3.553,3.553,0,0,0,.89-.093,1.156,1.156,0,0,0,.562-.311.952.952,0,0,0,.187-.621.878.878,0,0,0-.156-.528,1,1,0,0,0-.422-.342A2.524,2.524,0,0,0,42.142,209.034Zm9.795,5.4-.344-.9H48.656l-.344.932a2.938,2.938,0,0,1-.344.73.55.55,0,0,1-.469.186.652.652,0,0,1-.484-.2.6.6,0,0,1-.2-.45.427.427,0,0,1,.016-.14.534.534,0,0,1,.047-.186,4.163,4.163,0,0,1,.156-.419l1.859-4.674.187-.481a3.233,3.233,0,0,1,.234-.466.9.9,0,0,1,.328-.311,1.053,1.053,0,0,1,.516-.124.954.954,0,0,1,.5.109.863.863,0,0,1,.328.3,2.467,2.467,0,0,1,.219.4l.219.559,1.89,4.658a2.47,2.47,0,0,1,.219.776.635.635,0,0,1-.2.466.686.686,0,0,1-.5.2.6.6,0,0,1-.3-.062,1,1,0,0,1-.2-.155,1.4,1.4,0,0,1-.187-.326Zm-2.906-2h2.156l-1.094-2.981Zm10.888-3.292H58.295v5.326a.968.968,0,0,1-.2.683.666.666,0,0,1-.531.217.711.711,0,0,1-.547-.233.968.968,0,0,1-.2-.683v-5.326H55.186a.837.837,0,0,1-.562-.171.562.562,0,0,1-.187-.435.573.573,0,0,1,.187-.45.837.837,0,0,1,.562-.155h4.733a.883.883,0,0,1,.578.171.573.573,0,0,1,.187.45.54.54,0,0,1-.187.435A.883.883,0,0,1,59.919,209.142Zm2.328,5.342V208.8a.928.928,0,0,1,.219-.668.836.836,0,0,1,1.125,0,.928.928,0,0,1,.219.668v5.683a.955.955,0,0,1-.219.668.733.733,0,0,1-.578.233.821.821,0,0,1-.562-.217A1.112,1.112,0,0,1,62.247,214.484Zm6.624-6.568a3.621,3.621,0,0,1,1.828.45,2.825,2.825,0,0,1,1.156,1.289,4.538,4.538,0,0,1,.391,1.972,5.269,5.269,0,0,1-.219,1.522,3.894,3.894,0,0,1-.266.637,4.214,4.214,0,0,1-.375.543,2.809,2.809,0,0,1-1.062.776,3.762,3.762,0,0,1-1.437.264,3.82,3.82,0,0,1-1.437-.264,2.936,2.936,0,0,1-1.062-.776,3.536,3.536,0,0,1-.656-1.2,5.014,5.014,0,0,1-.156-.73,6.767,6.767,0,0,1-.062-.776,5.162,5.162,0,0,1,.219-1.506,3.536,3.536,0,0,1,.656-1.2,2.8,2.8,0,0,1,1.047-.745A3.88,3.88,0,0,1,68.871,207.916Zm1.968,3.711a3.628,3.628,0,0,0-.234-1.366,1.831,1.831,0,0,0-.7-.885,1.709,1.709,0,0,0-.484-.217,2.113,2.113,0,0,0-.547-.078,1.776,1.776,0,0,0-.765.155,1.643,1.643,0,0,0-.609.481,2.3,2.3,0,0,0-.391.807,4.2,4.2,0,0,0-.109.512,3.423,3.423,0,0,0-.047.575,4.215,4.215,0,0,0,.141,1.118,2.479,2.479,0,0,0,.172.45,2.446,2.446,0,0,0,.234.373,1.692,1.692,0,0,0,.625.481,1.776,1.776,0,0,0,.765.155,1.8,1.8,0,0,0,.969-.28,1.978,1.978,0,0,0,.719-.854A3.433,3.433,0,0,0,70.839,211.627Zm4.874-2.842,2.828,4.255v-4.286a.9.9,0,0,1,.187-.621.619.619,0,0,1,.484-.217.651.651,0,0,1,.5.217.9.9,0,0,1,.187.621v5.668c0,.637-.266.947-.8.947a1.339,1.339,0,0,1-.359-.047.82.82,0,0,1-.3-.171,1.233,1.233,0,0,1-.266-.3l-.234-.342-2.765-4.193v4.224a.829.829,0,0,1-.2.621.683.683,0,0,1-1,0,.924.924,0,0,1-.187-.621v-5.559a1.779,1.779,0,0,1,.078-.559.759.759,0,0,1,.312-.357.868.868,0,0,1,.469-.14.728.728,0,0,1,.328.062.893.893,0,0,1,.25.171,3.007,3.007,0,0,1,.219.279Z" transform="translate(0.1 -175.4)" fill="#6d6e70"/>
</svg>
